<svg width="16" height="16" viewBox="0 0 16 16" fill="none" xmlns="http://www.w3.org/2000/svg">
<path d="M8.00293 0C10.2104 0 12.2033 0.895599 13.6474 2.34707H13.6539C15.1045 3.79183 16 5.7919 16 8.00028C16 10.2084 15.1042 12.2146 13.6539 13.6535L13.6036 13.7038C12.1661 15.1234 10.1788 16 8.00293 16C5.78957 16 3.79031 15.1044 2.352 13.6535H2.3397C0.894961 12.2146 0 10.2084 0 8.00028C0 5.7919 0.89524 3.79183 2.3397 2.34707L2.39001 2.2959C3.84062 0.876586 5.82087 0 8.00293 0ZM10.0967 4.64325L8.00293 6.75069L5.89047 4.64325C5.55591 4.28982 4.98237 4.28982 4.64781 4.64325C4.29452 4.98438 4.29452 5.55171 4.64781 5.89899L6.74155 8.00028L4.64781 10.1013C4.29452 10.4483 4.29452 11.0159 4.64781 11.3632C4.98237 11.7102 5.55591 11.7102 5.89047 11.3632L8.00293 9.25574L10.0967 11.3632C10.45 11.7102 11.0053 11.7102 11.3586 11.3632C11.7113 11.0162 11.7113 10.4542 11.3586 10.1013L9.25845 8.00028L11.3586 5.89899C11.7113 5.55143 11.7113 4.98438 11.3586 4.64325C11.0053 4.28982 10.45 4.28982 10.0967 4.64325ZM12.3992 3.5961C11.2703 2.47317 9.71907 1.77918 8.00293 1.77918C6.3005 1.77918 4.76157 2.44773 3.63854 3.55835L3.60108 3.60225C2.47861 4.71874 1.78433 6.28346 1.78433 8C1.78433 9.71598 2.47861 11.2807 3.60108 12.4036C4.72356 13.5265 6.27478 14.2203 8.00293 14.2203C9.6995 14.2203 11.2384 13.5394 12.355 12.4416L12.3925 12.4036C13.5278 11.2807 14.2151 9.71598 14.2151 8C14.2151 6.28346 13.5278 4.71847 12.3925 3.60225L12.3992 3.5961Z" fill="#999999"/>
</svg>
