<svg width="10" height="8" viewBox="0 0 10 8" fill="none" xmlns="http://www.w3.org/2000/svg">
<path d="M9.63816 0.920664C9.5307 0.813167 9.40311 0.727892 9.26269 0.669713C9.12226 0.611534 8.97175 0.581589 8.81975 0.581589C8.66775 0.581589 8.51724 0.611534 8.37681 0.669713C8.23639 0.727892 8.1088 0.813167 8.00134 0.920664L3.63618 5.28671L1.99869 3.64966C1.89122 3.54213 1.76362 3.45683 1.62318 3.39863C1.48273 3.34043 1.3322 3.31048 1.18017 3.31048C1.02814 3.31048 0.877606 3.34043 0.737161 3.39863C0.596715 3.45683 0.469114 3.54213 0.361647 3.64966C0.254116 3.75713 0.168814 3.88473 0.110615 4.02518C0.0524162 4.16562 0.0224609 4.31616 0.0224609 4.46818C0.0224609 4.62021 0.0524162 4.77075 0.110615 4.91119C0.168814 5.05164 0.254116 5.17924 0.361647 5.28671L2.54401 7.46907C2.84103 7.76587 3.25558 7.84812 3.6353 7.75528C4.01589 7.84812 4.43022 7.76587 4.72747 7.46907L9.63794 2.55771C9.74551 2.45027 9.83086 2.32269 9.88909 2.18225C9.94732 2.04181 9.97731 1.89127 9.97733 1.73923C9.97735 1.5872 9.94741 1.43665 9.88921 1.29619C9.83101 1.15574 9.74571 1.02813 9.63816 0.920664Z" fill="white"/>
</svg>
